{"title":"Animals United 2010 DVD9rip Dutch Klam","uid":6608000,"size":1578012204,"categoryP":"video","categoryS":"movies","magnet":"?xt=urn:btih:cdb389c7362b194a33edf9196872dc1434875497&amp;dn=Animals+United+2010+DVD9rip+Dutch+Klam&amp;tr=udp%3A%2F%2Ftracker.openbittorrent.com%3A80&amp;tr=udp%3A%2F%2Fopen.demonii.com%3A1337&amp;tr=udp%3A%2F%2Ftracker.coppersurfer.tk%3A6969&amp;tr=udp%3A%2F%2Fexodus.desync.com%3A6969","seeders":1,"leechers":0,"uploader":"Klambake","files":-1,"time":1313488470,"description":"Nederlands gesproken,\nDe dieren in de Afrikaanse savanne vragen zich al een tijdje af waar het water gebleven is. Het had al lang moeten komen, door een kloof vanuit de verre bergen. De dorst wordt steeds groter, de zorgen ook, gezien het feit dat de laatste plas water verdedigd wordt door felle buffels en kwade neushoorns. Het dappere kleine stokstaartje Billy en de vredelievende leeuw Socrates, trekken erop uit om water te zoeken. Daarbij ontmoeten ze ook de Gallische haan Charles, die een ijsbeer, een kangoeroe, een Tasmaanse Duivel en twee Galapagos schildpadden, allen naar Afrika leidde. Ze moesten vanuit hun geboorteplaatsen vluchten naar Afrika en hopen om in de Okavango-Delta een beter leven te leiden. Maar helaas hebben de mensen zelfs dit laatste stukje paradijs niet gespaard. De hotelier Smith heeft beslist om een enorme dam te bouwen en het opgespaarde water te gebruiken voor zijn luxehotel...\n\nDutch spoken,\nA group of animals waiting for the annual flood they rely on for food and water discover that the humans, who have been destroying their habitats have built a dam for a leisure resort. \n\n------------------ Dutch Friends ------------------\nYou can find my Friends at: http://www.Film-Test.nl \n------ They got my dutchs subs ---- and more ------\n\nGeneral:\n\nComplete name                    : Animals United\\Animals United.avi\nFormat                           : AVI\nFormat/Info                      : Audio Video Interleave\nFile size                        : 1.47 GiB\nDuration                         : 1h 29mn\nOverall bit rate                 : 2 356 Kbps\n\nVideo:\n\nFormat                           : MPEG-4 Visual\nFormat profile                   : Simple@L3\nFormat settings, BVOP            : No\nFormat settings, QPel            : No\nFormat settings, GMC             : No warppoints\nFormat settings, Matrix          : Default (H.263)\nCodec ID                         : XVID\nCodec ID/Hint                    : XviD\nDuration                         : 1h 29mn\nBit rate                         : 1 961 Kbps\nWidth                            : 720 pixels\nHeight                           : 438 pixels\nDisplay aspect ratio             : 2.35:1\nFrame rate                       : 25.000 fps\nColor space                      : YUV\nChroma subsampling               : 4:2:0\nBit depth                        : 8 bits\nScan type                        : Progressive\nBits/(Pixel*Frame)               : 0.249\nStream size                      : 1.22 GiB (83%)\nWriting library                  : XviD 1.1.2 (UTC 2006-11-01)\n\nAudio:\n\nFormat                           : AC-3\nFormat/Info                      : Audio Coding 3\nMode extension                   : CM (complete main)\nCodec ID                         : 2000\nDuration                         : 1h 29mn\nBit rate mode                    : Constant\nBit rate                         : 384 Kbps\nChannel(s)                       : 6 channels\nChannel positions                : Front: L C R, Side: L R, LFE\nSampling rate                    : 48.0 KHz\nBit depth                        : 16 bits\nStream size                      : 245 MiB (16%)\nAlignment                        : Aligned on interleaves\nInterleave, duration             : 32 ms (0.80 video frame)\nInterleave, preload duration     : 2304 ms\n\n\n","torrent":{"xt":"urn:btih:cdb389c7362b194a33edf9196872dc1434875497","amp;dn":"Animals+United+2010+DVD9rip+Dutch+Klam","amp;tr":["udp%3A%2F%2Ftracker.openbittorrent.com%3A80","udp%3A%2F%2Fopen.demonii.com%3A1337","udp%3A%2F%2Ftracker.coppersurfer.tk%3A6969","udp%3A%2F%2Fexodus.desync.com%3A6969"],"infoHash":"cdb389c7362b194a33edf9196872dc1434875497","infoHashBuffer":{"type":"Buffer","data":[205,179,137,199,54,43,25,74,51,237,249,25,104,114,220,20,52,135,84,151]},"announce":[],"urlList":[]}}